# Blender 3.3.0
# www.blender.org
mtllib basicHouse.mtl
o Cube
v -2.566680 -1.206681 1.206681
v -2.566680 1.206681 1.206681
v -2.566680 -1.206681 -1.206681
v -2.566680 1.206681 -1.206681
v 2.566680 -1.206681 1.206681
v 2.566680 1.206681 1.206681
v 2.566680 -1.206681 -1.206681
v 2.566680 1.206681 -1.206681
v 0.000000 1.206681 1.206681
v 0.000000 -1.206681 -1.206681
v 0.000000 1.206681 -1.206681
v 0.000000 -1.206681 1.206681
v 2.566680 2.084974 0.000000
v -2.566680 -1.206681 0.000000
v 2.566680 -1.206681 0.000000
v -2.566680 2.084974 0.000000
v 0.000000 2.084974 0.000000
v 0.000000 -1.206681 0.000000
vn -0.0000 -1.0000 -0.0000
vn -0.0000 -0.0000 -1.0000
vn 1.0000 -0.0000 -0.0000
vn -0.0000 0.8085 -0.5885
vn -1.0000 -0.0000 -0.0000
vn -0.0000 -0.0000 1.0000
vn -0.0000 0.8085 0.5885
vt 0.625000 0.500000
vt 0.375000 0.500000
vt 0.625000 0.750000
vt 0.375000 0.750000
vt 0.625000 0.250000
vt 0.875000 0.500000
vt 0.375000 0.250000
vt 0.125000 0.500000
vt 0.875000 0.750000
vt 0.625000 1.000000
vt 0.625000 0.000000
vt 0.375000 1.000000
vt 0.125000 0.750000
vt 0.375000 0.000000
vt 0.375000 0.375000
vt 0.250000 0.500000
vt 0.625000 0.875000
vt 0.750000 0.750000
vt 0.250000 0.750000
vt 0.375000 0.875000
vt 0.625000 0.375000
vt 0.750000 0.500000
vt 0.125000 0.625000
vt 0.375000 0.125000
vt 0.625000 0.625000
vt 0.625000 0.125000
vt 0.875000 0.625000
vt 0.375000 0.625000
vt 0.250000 0.625000
vt 0.750000 0.625000
s 0
usemtl Material
f 18/30/1 10/18/1 7/9/1 15/27/1
f 11/20/2 8/12/2 7/10/2 10/17/2
f 13/24/3 6/7/3 5/5/3 15/26/3
f 17/29/4 11/19/4 4/4/4 16/28/4
f 16/28/5 4/4/5 3/3/5 14/25/5
f 9/15/6 2/2/6 1/1/6 12/21/6
f 6/7/6 9/15/6 12/21/6 5/5/6
f 13/23/4 8/13/4 11/19/4 17/29/4
f 4/4/2 11/20/2 10/17/2 3/3/2
f 14/25/1 3/3/1 10/18/1 18/30/1
f 1/1/1 14/25/1 18/30/1 12/22/1
f 6/8/7 13/23/7 17/29/7 9/16/7
f 2/2/5 16/28/5 14/25/5 1/1/5
f 9/16/7 17/29/7 16/28/7 2/2/7
f 8/14/3 13/24/3 15/26/3 7/11/3
f 12/22/1 18/30/1 15/27/1 5/6/1
